# xmcd
#
# Track frame offsets:
#	150
#	10670
#	21995
#	33227
#	41384
#	51575
#	64129
#	73861
#	86311
#	95386
#	106730
#	118862
#	129400
#	140425
#	150550
#	160694
#	171044
#	184169
#	195344
#	207616
#	218735
#	227332
#	237542
#	249055
#	263352
#	274434
#	287859
#	298369
#	308982
#
# Disc length: 4269 seconds
#
# Revision: 1
# Processed by: cddbd v1.5.2PL0 Copyright (c) Steve Scherf et al.
# Submitted via: audiograbber 1.83.01
#
DISCID=9d10ab1d
DTITLE=Chuck Willis - Rockin' with The Sheik Of The Blues
DYEAR=1900
DGENRE=R&B
TTITLE0=Let's Jump Tonight 
TTITLE1=One More Break
TTITLE2=Bless Her Heart (Break her rule)
TTITLE3=Sugar Sugar
TTITLE4=Loud Mouth Lucy
TTITLE5=Here I Come
TTITLE6=Lawdy Miss Mary
TTITLE7=Whatcha Gonna Do When Your Baby Leaves You
TTITLE8=Kansas City Woman
TTITLE9=C.C. Rider
TTITLE10=Night Of Misery
TTITLE11=From The Bottom Of My Heart
TTITLE12=What Am I Living For
TTITLE13=There's Got To Be A Way
TTITLE14=Take It Like A Man
TTITLE15=Keep A Knockin' 
TTITLE16=I Feel So Bad
TTITLE17=If I Were You
TTITLE18=If I Were You
TTITLE19=Wrong Lake To Catch A Fish
TTITLE20=My Baby
TTITLE21=Just One Kiss
TTITLE22=Search My Heart 
TTITLE23=You're Still My Baby
TTITLE24=Betty And Dupree
TTITLE25=Charged and Cheatin'
TTITLE26=Hang Up My Rock and Roll Shoes
TTITLE27=Ease The Pain
TTITLE28=Ring Ding Doo
EXTD=
EXTT0=
EXTT1=
EXTT2=
EXTT3=
EXTT4=
EXTT5=
EXTT6=
EXTT7=
EXTT8=
EXTT9=
EXTT10=
EXTT11=
EXTT12=
EXTT13=
EXTT14=
EXTT15=
EXTT16=
EXTT17=
EXTT18=
EXTT19=
EXTT20=
EXTT21=
EXTT22=
EXTT23=
EXTT24=
EXTT25=
EXTT26=
EXTT27=
EXTT28=
PLAYORDER=
